<svg width="5" height="7" viewBox="0 0 5 7" fill="none" xmlns="http://www.w3.org/2000/svg">
<path d="M4.86661 2.92028C4.88132 2.90668 4.89263 2.88981 4.89962 2.87102C4.90661 2.85224 4.90909 2.83208 4.90685 2.81217C4.90461 2.79225 4.89772 2.77314 4.88673 2.75638C4.87575 2.73962 4.86097 2.72568 4.84361 2.71568L0.490407 0.229284C0.470979 0.218254 0.448996 0.212517 0.426656 0.212649C0.404316 0.21278 0.382402 0.218774 0.363105 0.230032C0.343809 0.24129 0.327806 0.257417 0.316698 0.2768C0.30559 0.296184 0.299765 0.318143 0.299807 0.340484V6.86448C0.299666 6.8894 0.306834 6.91381 0.320425 6.9347C0.334016 6.95558 0.353433 6.97202 0.376272 6.98198C0.399111 6.99194 0.424369 6.99499 0.448922 6.99074C0.473474 6.98649 0.496241 6.97514 0.514407 6.95808L4.86661 2.92028Z" fill="#333333"/>
</svg>
